<svg xmlns="http://www.w3.org/2000/svg" viewBox="0 0 1000 500" width="1000" height="500">
  <defs>
    <style>
      @keyframes blink1 {
        0%, 100% { opacity: 0.9; }
        50% { opacity: 0.25; }
      }
      @keyframes blink2 {
        0%, 100% { opacity: 0.25; }
        50% { opacity: 0.9; }
      }
      @keyframes blink3 {
        0%, 100% { opacity: 0.6; }
        33% { opacity: 0.15; }
        66% { opacity: 0.85; }
      }
      @keyframes ring-grow {
        0% { opacity: 0.7; }
        100% { opacity: 0; }
      }
      @keyframes dash-move {
        0% { stroke-dashoffset: 20; }
        100% { stroke-dashoffset: 0; }
      }
      @keyframes scan {
        0% { opacity: 0; }
        10% { opacity: 0.06; }
        50% { opacity: 0.06; }
        60% { opacity: 0; }
        100% { opacity: 0; }
      }
      @keyframes glow-pulse {
        0%, 100% { opacity: 0.3; }
        50% { opacity: 0.6; }
      }
      @keyframes status-blink {
        0%, 100% { opacity: 1; }
        50% { opacity: 0.2; }
      }
      .n1 { animation: blink1 2s ease-in-out infinite; }
      .n2 { animation: blink2 2.5s ease-in-out infinite; }
      .n3 { animation: blink3 3s ease-in-out infinite; }
      .n4 { animation: blink1 1.8s ease-in-out infinite; animation-delay: 0.5s; }
      .n5 { animation: blink2 2.2s ease-in-out infinite; animation-delay: 0.3s; }
      .n6 { animation: blink3 2.8s ease-in-out infinite; animation-delay: 0.7s; }
      .rg1 { animation: ring-grow 2s ease-out infinite; }
      .rg2 { animation: ring-grow 2s ease-out infinite; animation-delay: 0.6s; }
      .rg3 { animation: ring-grow 2.5s ease-out infinite; animation-delay: 0.3s; }
      .rg4 { animation: ring-grow 2s ease-out infinite; animation-delay: 1s; }
      .rg5 { animation: ring-grow 2.2s ease-out infinite; animation-delay: 0.8s; }
      .rg6 { animation: ring-grow 2s ease-out infinite; animation-delay: 1.2s; }
      .tl { stroke-dasharray: 6 4; fill: none; animation: dash-move 1s linear infinite; }
      .tl-a { stroke: #7c3aed; stroke-width: 1; opacity: 0.55; }
      .tl-b { stroke: #a78bfa; stroke-width: 0.7; opacity: 0.35; stroke-dasharray: 4 6; animation-duration: 1.5s; }
      .sl { animation: scan 6s linear infinite; }
      .sl2 { animation: scan 6s linear infinite; animation-delay: 3s; }
      .gp { animation: glow-pulse 4s ease-in-out infinite; }
      .sb { animation: status-blink 1.5s ease-in-out infinite; }
      .grid { stroke: #1e1b4b; stroke-width: 0.3; fill: none; }
      .cont { fill: none; stroke: #4c1d95; stroke-width: 0.8; opacity: 0.7; }
      .cf { fill: #1e1040; stroke: none; opacity: 0.5; }
      .ht { font-family: monospace; fill: #a78bfa; font-size: 9px; letter-spacing: 1px; }
      .hl { font-family: monospace; fill: #6d28d9; font-size: 7px; letter-spacing: 2px; }
      .hv { font-family: monospace; fill: #c4b5fd; font-size: 11px; }
      .hti { font-family: monospace; fill: #e9d5ff; font-size: 10px; letter-spacing: 3px; }
    </style>
    <radialGradient id="bg" cx="50%" cy="50%" r="60%">
      <stop offset="0%" stop-color="#0f0520"/>
      <stop offset="100%" stop-color="#050208"/>
    </radialGradient>
    <linearGradient id="sg" x1="0" y1="0" x2="0" y2="1">
      <stop offset="0%" stop-color="#7c3aed" stop-opacity="0"/>
      <stop offset="50%" stop-color="#7c3aed" stop-opacity="1"/>
      <stop offset="100%" stop-color="#7c3aed" stop-opacity="0"/>
    </linearGradient>
  </defs>

  <!-- Background -->
  <rect width="1000" height="500" fill="url(#bg)"/>

  <!-- Grid -->
  <g class="gp">
    <line x1="0" y1="125" x2="1000" y2="125" class="grid"/>
    <line x1="0" y1="250" x2="1000" y2="250" class="grid"/>
    <line x1="0" y1="375" x2="1000" y2="375" class="grid"/>
    <line x1="250" y1="0" x2="250" y2="500" class="grid"/>
    <line x1="500" y1="0" x2="500" y2="500" class="grid"/>
    <line x1="750" y1="0" x2="750" y2="500" class="grid"/>
    <line x1="0" y1="62" x2="1000" y2="62" class="grid" opacity="0.4"/>
    <line x1="0" y1="187" x2="1000" y2="187" class="grid" opacity="0.4"/>
    <line x1="0" y1="312" x2="1000" y2="312" class="grid" opacity="0.4"/>
    <line x1="0" y1="437" x2="1000" y2="437" class="grid" opacity="0.4"/>
    <line x1="125" y1="0" x2="125" y2="500" class="grid" opacity="0.4"/>
    <line x1="375" y1="0" x2="375" y2="500" class="grid" opacity="0.4"/>
    <line x1="625" y1="0" x2="625" y2="500" class="grid" opacity="0.4"/>
    <line x1="875" y1="0" x2="875" y2="500" class="grid" opacity="0.4"/>
  </g>

  <!-- Scan lines -->
  <rect x="0" y="100" width="1000" height="120" fill="url(#sg)" class="sl" opacity="0"/>
  <rect x="0" y="280" width="1000" height="120" fill="url(#sg)" class="sl2" opacity="0"/>

  <!-- Continents -->
  <g>
    <path class="cf" d="M120,100 L180,80 L230,85 L260,100 L270,120 L280,140 L270,160 L250,180 L220,200 L200,220 L180,210 L160,240 L140,230 L120,200 L100,180 L90,150 L95,120 Z"/>
    <path class="cont" d="M120,100 L180,80 L230,85 L260,100 L270,120 L280,140 L270,160 L250,180 L220,200 L200,220 L180,210 L160,240 L140,230 L120,200 L100,180 L90,150 L95,120 Z"/>
    <path class="cf" d="M220,260 L250,250 L280,260 L300,280 L310,310 L305,340 L290,370 L270,390 L250,400 L240,380 L230,350 L220,320 L210,290 Z"/>
    <path class="cont" d="M220,260 L250,250 L280,260 L300,280 L310,310 L305,340 L290,370 L270,390 L250,400 L240,380 L230,350 L220,320 L210,290 Z"/>
    <path class="cf" d="M430,90 L460,80 L500,85 L520,90 L530,100 L540,110 L530,130 L510,140 L490,135 L470,140 L450,135 L440,120 L430,110 Z"/>
    <path class="cont" d="M430,90 L460,80 L500,85 L520,90 L530,100 L540,110 L530,130 L510,140 L490,135 L470,140 L450,135 L440,120 L430,110 Z"/>
    <path class="cf" d="M440,160 L470,150 L510,155 L530,170 L540,200 L545,230 L540,270 L530,300 L510,330 L490,345 L470,340 L455,320 L445,290 L440,260 L435,230 L430,200 Z"/>
    <path class="cont" d="M440,160 L470,150 L510,155 L530,170 L540,200 L545,230 L540,270 L530,300 L510,330 L490,345 L470,340 L455,320 L445,290 L440,260 L435,230 L430,200 Z"/>
    <path class="cf" d="M550,70 L600,60 L660,65 L720,70 L770,80 L800,95 L810,110 L800,130 L780,145 L750,155 L720,160 L690,165 L660,170 L630,165 L600,155 L580,145 L560,130 L550,110 L545,90 Z"/>
    <path class="cont" d="M550,70 L600,60 L660,65 L720,70 L770,80 L800,95 L810,110 L800,130 L780,145 L750,155 L720,160 L690,165 L660,170 L630,165 L600,155 L580,145 L560,130 L550,110 L545,90 Z"/>
    <path class="cf" d="M700,200 L730,195 L760,200 L780,210 L790,225 L770,235 L740,230 L720,240 L700,235 L690,220 Z"/>
    <path class="cont" d="M700,200 L730,195 L760,200 L780,210 L790,225 L770,235 L740,230 L720,240 L700,235 L690,220 Z"/>
    <path class="cf" d="M780,310 L820,295 L860,300 L880,315 L885,340 L870,365 L845,375 L815,370 L790,355 L780,335 Z"/>
    <path class="cont" d="M780,310 L820,295 L860,300 L880,315 L885,340 L870,365 L845,375 L815,370 L790,355 L780,335 Z"/>
  </g>

  <!-- Threat Lines -->
  <g>
    <path class="tl tl-a" d="M730,220 Q760,170 780,110"/>
    <path class="tl tl-a" d="M730,220 Q580,160 480,105"/>
    <path class="tl tl-b" d="M730,220 Q500,200 220,140"/>
    <path class="tl tl-a" d="M580,90 Q650,150 730,220"/>
    <path class="tl tl-b" d="M270,340 Q380,200 480,105"/>
    <path class="tl tl-b" d="M740,215 Q780,270 830,320"/>
    <path class="tl tl-a" d="M220,140 Q350,80 480,105"/>
    <path class="tl tl-b" d="M720,100 Q650,80 580,90"/>
    <path class="tl tl-a" d="M780,110 Q600,90 180,130"/>
    <path class="tl tl-b" d="M660,175 Q600,160 560,155"/>
  </g>

  <!-- Nodes -->
  <g>
    <!-- Jakarta HOME -->
    <circle cx="730" cy="220" r="18" fill="#a78bfa" opacity="0.12" class="n1"/>
    <circle cx="730" cy="220" r="12" fill="#a78bfa" opacity="0.2" class="n2"/>
    <circle cx="730" cy="220" r="8" fill="none" stroke="#a78bfa" stroke-width="1.5" opacity="0" class="rg1"/>
    <circle cx="730" cy="220" r="14" fill="none" stroke="#a78bfa" stroke-width="0.8" opacity="0" class="rg2"/>
    <circle cx="730" cy="220" r="4" fill="#a78bfa"/>

    <!-- New York -->
    <circle cx="220" cy="140" r="12" fill="#8b5cf6" opacity="0.1" class="n3"/>
    <circle cx="220" cy="140" r="8" fill="none" stroke="#8b5cf6" stroke-width="1" opacity="0" class="rg3"/>
    <circle cx="220" cy="140" r="3" fill="#8b5cf6" class="n1"/>

    <!-- London -->
    <circle cx="480" cy="105" r="12" fill="#8b5cf6" opacity="0.1" class="n4"/>
    <circle cx="480" cy="105" r="8" fill="none" stroke="#8b5cf6" stroke-width="1" opacity="0" class="rg4"/>
    <circle cx="480" cy="105" r="3" fill="#8b5cf6" class="n2"/>

    <!-- Moscow -->
    <circle cx="580" cy="90" r="9" fill="#7c3aed" opacity="0.08" class="n5"/>
    <circle cx="580" cy="90" r="6" fill="none" stroke="#7c3aed" stroke-width="0.8" opacity="0" class="rg5"/>
    <circle cx="580" cy="90" r="2.5" fill="#7c3aed" class="n3"/>

    <!-- Tokyo -->
    <circle cx="780" cy="110" r="12" fill="#8b5cf6" opacity="0.1" class="n6"/>
    <circle cx="780" cy="110" r="8" fill="none" stroke="#8b5cf6" stroke-width="1" opacity="0" class="rg6"/>
    <circle cx="780" cy="110" r="3" fill="#8b5cf6" class="n4"/>

    <!-- Sao Paulo -->
    <circle cx="270" cy="340" r="9" fill="#7c3aed" opacity="0.08" class="n2"/>
    <circle cx="270" cy="340" r="6" fill="none" stroke="#7c3aed" stroke-width="0.8" opacity="0" class="rg1"/>
    <circle cx="270" cy="340" r="2.5" fill="#7c3aed" class="n5"/>

    <!-- Sydney -->
    <circle cx="830" cy="320" r="9" fill="#7c3aed" opacity="0.08" class="n4"/>
    <circle cx="830" cy="320" r="6" fill="none" stroke="#7c3aed" stroke-width="0.8" opacity="0" class="rg3"/>
    <circle cx="830" cy="320" r="2.5" fill="#7c3aed" class="n1"/>

    <!-- San Francisco -->
    <circle cx="145" cy="135" r="9" fill="#7c3aed" opacity="0.08" class="n6"/>
    <circle cx="145" cy="135" r="6" fill="none" stroke="#7c3aed" stroke-width="0.8" opacity="0" class="rg5"/>
    <circle cx="145" cy="135" r="2.5" fill="#7c3aed" class="n3"/>

    <!-- Dubai -->
    <circle cx="560" cy="155" r="9" fill="#7c3aed" opacity="0.08" class="n1"/>
    <circle cx="560" cy="155" r="6" fill="none" stroke="#7c3aed" stroke-width="0.8" opacity="0" class="rg2"/>
    <circle cx="560" cy="155" r="2.5" fill="#7c3aed" class="n5"/>

    <!-- Mumbai -->
    <circle cx="660" cy="175" r="9" fill="#7c3aed" opacity="0.08" class="n3"/>
    <circle cx="660" cy="175" r="6" fill="none" stroke="#7c3aed" stroke-width="0.8" opacity="0" class="rg4"/>
    <circle cx="660" cy="175" r="2.5" fill="#7c3aed" class="n6"/>

    <!-- Singapore -->
    <circle cx="740" cy="215" r="2" fill="#6d28d9" class="n2"/>
    <!-- Seoul -->
    <circle cx="760" cy="105" r="2" fill="#6d28d9" class="n4"/>
    <!-- Berlin -->
    <circle cx="500" cy="95" r="2" fill="#6d28d9" class="n6"/>
    <!-- Beijing -->
    <circle cx="720" cy="100" r="2" fill="#6d28d9" class="n1"/>
  </g>

  <!-- HUD Frame -->
  <g>
    <line x1="15" y1="15" x2="55" y2="15" stroke="#4c1d95" stroke-width="1"/>
    <line x1="15" y1="15" x2="15" y2="55" stroke="#4c1d95" stroke-width="1"/>
    <line x1="945" y1="15" x2="985" y2="15" stroke="#4c1d95" stroke-width="1"/>
    <line x1="985" y1="15" x2="985" y2="55" stroke="#4c1d95" stroke-width="1"/>
    <line x1="15" y1="445" x2="15" y2="485" stroke="#4c1d95" stroke-width="1"/>
    <line x1="15" y1="485" x2="55" y2="485" stroke="#4c1d95" stroke-width="1"/>
    <line x1="945" y1="485" x2="985" y2="485" stroke="#4c1d95" stroke-width="1"/>
    <line x1="985" y1="445" x2="985" y2="485" stroke="#4c1d95" stroke-width="1"/>
    <rect x="60" y="12" width="880" height="1" fill="#1e1b4b" opacity="0.6"/>
    <rect x="60" y="487" width="880" height="1" fill="#1e1b4b" opacity="0.6"/>
  </g>

  <!-- Title -->
  <text x="500" y="38" text-anchor="middle" class="hti">GLOBAL THREAT INTELLIGENCE MONITOR</text>
  <circle cx="365" cy="35" r="3" fill="#a78bfa" class="sb"/>
  <text x="374" y="38" class="hl" fill="#6d28d9">LIVE</text>

  <!-- Left Panel -->
  <rect x="25" y="65" width="120" height="90" rx="3" fill="#0a0315" stroke="#2e1065" stroke-width="0.5" opacity="0.85"/>
  <text x="35" y="80" class="hl">THREATS TODAY</text>
  <text x="35" y="100" class="hv" font-size="18" fill="#e9d5ff">14,827</text>
  <text x="35" y="116" class="hl">BLOCKED</text>
  <text x="35" y="132" class="hv" font-size="13" fill="#34d399">12,491</text>
  <text x="35" y="148" class="hl">ACTIVE NODES</text>
  <circle cx="40" cy="153" r="2" fill="#a78bfa" class="sb"/>
  <text x="47" y="156" class="ht" font-size="8" fill="#a78bfa">14 ONLINE</text>

  <!-- Right Panel -->
  <rect x="855" y="65" width="120" height="90" rx="3" fill="#0a0315" stroke="#2e1065" stroke-width="0.5" opacity="0.85"/>
  <text x="865" y="80" class="hl">TOP VECTORS</text>
  <text x="865" y="96" class="ht" font-size="8">SQL Injection</text>
  <text x="865" y="108" class="ht" font-size="8">XSS Reflected</text>
  <text x="865" y="120" class="ht" font-size="8">Brute Force</text>
  <text x="865" y="132" class="ht" font-size="8">DDoS Layer 7</text>
  <text x="865" y="144" class="ht" font-size="8">Path Traversal</text>

  <!-- City Labels -->
  <text x="730" y="244" text-anchor="middle" class="ht" fill="#e9d5ff" font-size="8">JAKARTA</text>
  <text x="220" y="158" text-anchor="middle" class="hl" font-size="6">NEW YORK</text>
  <text x="480" y="97" text-anchor="middle" class="hl" font-size="6">LONDON</text>
  <text x="780" y="127" text-anchor="middle" class="hl" font-size="6">TOKYO</text>
  <text x="580" y="82" text-anchor="middle" class="hl" font-size="6">MOSCOW</text>
  <text x="830" y="341" text-anchor="middle" class="hl" font-size="6">SYDNEY</text>
  <text x="660" y="191" text-anchor="middle" class="hl" font-size="6">MUMBAI</text>

  <!-- Bottom Bar -->
  <rect x="25" y="455" width="950" height="26" rx="3" fill="#0a0315" stroke="#2e1065" stroke-width="0.5" opacity="0.75"/>
  <circle cx="40" cy="468" r="3" fill="#34d399" class="sb"/>
  <text x="50" y="471" class="ht" font-size="8">SYSTEM ONLINE</text>
  <text x="170" y="471" class="hl" font-size="7" fill="#2e1065">|</text>
  <text x="185" y="471" class="ht" font-size="8">UPTIME 99.97%</text>
  <text x="300" y="471" class="hl" font-size="7" fill="#2e1065">|</text>
  <text x="315" y="471" class="ht" font-size="8">LATENCY 12ms</text>
  <text x="430" y="471" class="hl" font-size="7" fill="#2e1065">|</text>
  <text x="445" y="471" class="ht" font-size="8">FIREWALL: ACTIVE</text>
  <text x="580" y="471" class="hl" font-size="7" fill="#2e1065">|</text>
  <text x="595" y="471" class="ht" font-size="8">IDS/IPS: MONITORING</text>
  <text x="750" y="471" class="hl" font-size="7" fill="#2e1065">|</text>
  <text x="765" y="471" class="ht" font-size="8">@el-pablos // tams.codes</text>

  <!-- Vignette -->
  <rect width="1000" height="500" fill="url(#bg)" opacity="0.12"/>
</svg>
